<?xml version="1.0" encoding="UTF-8"?>
<svg width="24px" height="24px" viewBox="0 0 24 24" version="1.1" xmlns="http://www.w3.org/2000/svg" xmlns:xlink="http://www.w3.org/1999/xlink">
    <title>Group</title>
    <g id="Page-1" stroke="none" stroke-width="1" fill="none" fill-rule="evenodd" stroke-linecap="round" stroke-linejoin="round">
        <g id="alert-circle" stroke="#000">
            <path d="M23.0000363,11.811 C23.015429,17.9233973 18.1117733,22.9113067 12,23 C9.10273283,23.0435924 6.30867558,21.9250998 4.24180772,19.8943082 C2.17493987,17.8635166 1.00742609,15.0895856 0.999955547,12.192 C0.982924988,6.07843525 5.88705498,1.08870589 12,1 C14.8977063,0.956673758 17.6920644,2.0756643 19.7589608,4.10704764 C21.8258571,6.13843098 22.9931042,8.91297803 23.0000363,11.811 Z" id="Shape"></path>
            <line x1="12" y1="14.005" x2="12" y2="7.005" id="Shape"></line>
            <path d="M11.991,16.005 C11.9249485,16.0060231 11.8621091,16.0336759 11.8167345,16.0816863 C11.77136,16.1296968 11.7472958,16.1939959 11.75,16.26 C11.7548342,16.3963667 11.8665483,16.5045484 12.003,16.505 L12.003,16.505 C12.0689612,16.5037037 12.1316375,16.4759669 12.1769533,16.4280186 C12.2222692,16.3800703 12.2464264,16.3159293 12.244,16.25 C12.2398689,16.116824 12.133158,16.0096757 12,16.005 L11.995,16.005" id="Shape"></path>
        </g>
    </g>
</svg>