<?xml version="1.0" encoding="UTF-8"?>
<svg width="24px" height="24px" viewBox="0 0 24 24" version="1.1" xmlns="http://www.w3.org/2000/svg" xmlns:xlink="http://www.w3.org/1999/xlink">
    <title>Group</title>
    <g id="Page-1" stroke="none" stroke-width="1" fill="none" fill-rule="evenodd" stroke-linecap="round" stroke-linejoin="round">
        <g id="server-3" stroke="#000">
            <path d="M23.5,13 C23.5,14.1045695 22.6045695,15 21.5,15 L2.5,15 C1.3954305,15 0.5,14.1045695 0.5,13 L0.5,11 C0.5,9.8954305 1.3954305,9 2.5,9 L21.5,9 C22.6045695,9 23.5,9.8954305 23.5,11 L23.5,13 Z" id="Shape"></path>
            <path d="M4.75,11.75 C4.61192881,11.75 4.5,11.8619288 4.5,12 C4.5,12.1380712 4.61192881,12.25 4.75,12.25 C4.88807119,12.25 5,12.1380712 5,12 C5,11.8619288 4.88807119,11.75 4.75,11.75 L4.75,11.75" id="Shape"></path>
            <path d="M8.25,11.75 C8.11192881,11.75 8,11.8619288 8,12 C8,12.1380712 8.11192881,12.25 8.25,12.25 C8.38807119,12.25 8.5,12.1380712 8.5,12 C8.5,11.8619288 8.38807119,11.75 8.25,11.75 L8.25,11.75" id="Shape"></path>
            <path d="M23.5,7 C23.5,8.1045695 22.6045695,9 21.5,9 L2.5,9 C1.3954305,9 0.5,8.1045695 0.5,7 L0.5,5 C0.5,3.8954305 1.3954305,3 2.5,3 L21.5,3 C22.6045695,3 23.5,3.8954305 23.5,5 L23.5,7 Z" id="Shape"></path>
            <path d="M4.75,5.75 C4.61192881,5.75 4.5,5.86192881 4.5,6 C4.5,6.13807119 4.61192881,6.25 4.75,6.25 C4.88807119,6.25 5,6.13807119 5,6 C5,5.86192881 4.88807119,5.75 4.75,5.75 L4.75,5.75" id="Shape"></path>
            <path d="M8.25,5.75 C8.11192881,5.75 8,5.86192881 8,6 C8,6.13807119 8.11192881,6.25 8.25,6.25 C8.38807119,6.25 8.5,6.13807119 8.5,6 C8.5,5.86192881 8.38807119,5.75 8.25,5.75 L8.25,5.75" id="Shape"></path>
            <path d="M23.5,19 C23.5,20.1045695 22.6045695,21 21.5,21 L2.5,21 C1.3954305,21 0.5,20.1045695 0.5,19 L0.5,17 C0.5,15.8954305 1.3954305,15 2.5,15 L21.5,15 C22.6045695,15 23.5,15.8954305 23.5,17 L23.5,19 Z" id="Shape"></path>
            <path d="M4.75,17.75 C4.61192881,17.75 4.5,17.8619288 4.5,18 C4.5,18.1380712 4.61192881,18.25 4.75,18.25 C4.88807119,18.25 5,18.1380712 5,18 C5,17.8619288 4.88807119,17.75 4.75,17.75 L4.75,17.75" id="Shape"></path>
            <path d="M8.25,17.75 C8.11192881,17.75 8,17.8619288 8,18 C8,18.1380712 8.11192881,18.25 8.25,18.25 C8.38807119,18.25 8.5,18.1380712 8.5,18 C8.5,17.8619288 8.38807119,17.75 8.25,17.75 L8.25,17.75" id="Shape"></path>
        </g>
    </g>
</svg>