
<svg width="25px" height="24px" viewBox="0 0 25 24" version="1.1" xmlns="http://www.w3.org/2000/svg" xmlns:xlink="http://www.w3.org/1999/xlink">
    <g id="Page-1" stroke="none" stroke-width="1" fill="none" fill-rule="evenodd" stroke-linecap="round" stroke-linejoin="round">
        <g id="database-star" stroke="#ccc">
            <ellipse id="Oval" cx="10.022" cy="4.501" rx="9.5" ry="4"></ellipse>
            <path d="M10.022,12.5 C4.776,12.5 0.522,10.71 0.522,8.5" id="Shape"></path>
            <path d="M8.522,16.95 C3.989,16.65 0.522,14.995 0.522,13.001" id="Shape"></path>
            <path d="M9.022,21.48 C4.246,21.269 0.522,19.568 0.522,17.501 L0.522,4.5" id="Shape"></path>
            <line x1="19.522" y1="4.501" x2="19.522" y2="9.001" id="Shape"></line>
            <path d="M18.225,11.931 L19.764,15.5 L22.764,15.5 C23.0737955,15.4882866 23.3576312,15.6722144 23.4735024,15.9597633 C23.5893736,16.2473121 23.5123632,16.5766471 23.281,16.783 L20.681,19.099 L22.121,22.412 C22.2525811,22.723758 22.1695756,23.0847485 21.9150391,23.3077234 C21.6605026,23.5306982 21.2917276,23.5654691 21,23.394 L17.519,21.433 L14.039,23.394 C13.7474523,23.5623158 13.3810413,23.525997 13.1282091,23.3037219 C12.8753769,23.0814469 12.792419,22.7227074 12.922,22.412 L14.362,19.099 L11.762,16.784 C11.5303221,16.5781554 11.4526529,16.2491081 11.5678293,15.9613912 C11.6830057,15.6736742 11.9662773,15.4891156 12.276,15.5 L15.276,15.5 L16.817,11.931 C16.9566523,11.6722614 17.2269789,11.5109789 17.521,11.5109789 C17.8150211,11.5109789 18.0853477,11.6722614 18.225,11.931 Z" id="Shape"></path>
        </g>
    </g>
</svg>