<?xml version="1.0" encoding="UTF-8"?>
<svg width="24px" height="20px" viewBox="0 0 24 20" version="1.1" xmlns="http://www.w3.org/2000/svg" xmlns:xlink="http://www.w3.org/1999/xlink">
    <title>Group</title>
    <g id="Page-1" stroke="none" stroke-width="1" fill="none" fill-rule="evenodd" stroke-linecap="round" stroke-linejoin="round">
        <g id="Users-/-Geometric-Close-Up-Multiple-Users-/-multiple-man-woman-2" transform="translate(0.000000, -2.000000)" stroke="#000">
            <g id="Light" transform="translate(0.000000, 3.000000)">
                <path d="M13.994,3.568 C15.1539911,4.34669999 16.5198779,4.76172347 17.917,4.76000535 C18.8777931,4.7608055 19.8286029,4.56513062 20.711,4.185" id="Shape"></path>
                <path d="M13.26,2.01 C14.7000986,0.315077254 17.2035854,0.0174923348 19.0008855,1.32759137 C20.7981856,2.6376904 21.2810759,5.11212355 20.1082283,7.00185253 C18.9353806,8.89158151 16.5036977,9.55710426 14.532,8.528" id="Shape"></path>
                <path d="M14.5,10.8 C16.6186472,10.1705491 18.9100973,10.5778907 20.6820104,11.8989503 C22.4539234,13.22001 23.4984514,15.2998253 23.5,17.51 L17,17.51" id="Shape"></path>
                <path d="M0.5,17.5120001 C0.5,13.6460068 3.63400679,10.5120001 7.5,10.5120001 C11.3659932,10.5120001 14.5,13.6460068 14.5,17.5120001 L0.5,17.5120001 Z" id="Shape"></path>
                <path d="M12.6,9.11 C12.0409419,8.19191426 11.7628414,7.13026563 11.8,6.056 L11.8,4.807 C11.8681563,3.22796348 11.0645763,1.73881203 9.70732131,0.928959878 C8.35006632,0.119107731 6.65793368,0.119107731 5.30067869,0.928959878 C3.94342369,1.73881203 3.13984369,3.22796348 3.208,4.807 L3.208,6.056 C3.24515861,7.13026563 2.96705812,8.19191426 2.408,9.11" id="Shape"></path>
                <path d="M3.2,5.517 C4.85134354,5.515656 6.42058822,4.79672297 7.5,3.547 C8.57941178,4.79672297 10.1486565,5.515656 11.8,5.517" id="Shape"></path>
                <path d="M11.287,5.494 C11.1939543,7.51787732 9.52601503,9.11089658 7.5,9.11089658 C5.47398497,9.11089658 3.80604567,7.51787732 3.713,5.494" id="Shape"></path>
            </g>
        </g>
    </g>
</svg>